<svg xmlns="http://www.w3.org/2000/svg" viewBox="0 0 800 640" width="800" height="640" role="img"><rect width="800" height="640" fill="#fbfbf9"/><line x1="76" y1="157.3" x2="724" y2="157.3" stroke="#dcdcd6" stroke-width="1"/><rect x="76.0" y="129.3" width="129.6" height="56" fill="#fbfbf9" stroke="#bdbdb6" stroke-width="2.5"/><rect x="270.4" y="129.3" width="142.6" height="56" fill="#fbfbf9" stroke="#bdbdb6" stroke-width="2.5"/><rect x="503.7" y="129.3" width="220.3" height="56" fill="#fbfbf9" stroke="#bdbdb6" stroke-width="2.5"/><line x1="76" y1="238.7" x2="724" y2="238.7" stroke="#dcdcd6" stroke-width="1.5"/><line x1="76" y1="320.0" x2="724" y2="320.0" stroke="#dcdcd6" stroke-width="1"/><rect x="153.8" y="292.0" width="168.5" height="56" fill="#fbfbf9" stroke="#bdbdb6" stroke-width="2.5"/><rect x="374.1" y="292.0" width="194.4" height="56" fill="#e4561b" stroke="#e4561b" stroke-width="2.5"/><rect x="607.4" y="292.0" width="116.6" height="56" fill="#fbfbf9" stroke="#bdbdb6" stroke-width="2.5"/><line x1="76" y1="401.3" x2="724" y2="401.3" stroke="#dcdcd6" stroke-width="1.5"/><line x1="76" y1="482.7" x2="724" y2="482.7" stroke="#dcdcd6" stroke-width="1"/><rect x="101.9" y="454.7" width="116.6" height="56" fill="#fbfbf9" stroke="#bdbdb6" stroke-width="2.5"/><rect x="309.3" y="454.7" width="168.5" height="56" fill="#fbfbf9" stroke="#bdbdb6" stroke-width="2.5"/><rect x="529.6" y="454.7" width="194.4" height="56" fill="#fbfbf9" stroke="#bdbdb6" stroke-width="2.5"/></svg>