<svg xmlns="http://www.w3.org/2000/svg" viewBox="0 0 800 640" width="800" height="640" role="img"><rect width="800" height="640" fill="#fbfbf9"/><line x1="76" y1="264.8" x2="724" y2="264.8" stroke="#dcdcd6" stroke-width="1"/><line x1="76" y1="364.5" x2="724" y2="364.5" stroke="#dcdcd6" stroke-width="1"/><line x1="76" y1="464.2" x2="724" y2="464.2" stroke="#dcdcd6" stroke-width="1"/><rect x="87.2" y="431.5" width="36.5" height="132.5" fill="#bdbdb6"/><rect x="146.1" y="431.0" width="36.5" height="133.0" fill="#bdbdb6"/><rect x="205.0" y="416.3" width="36.5" height="147.7" fill="#bdbdb6"/><rect x="263.9" y="358.3" width="36.5" height="205.7" fill="#bdbdb6"/><rect x="322.8" y="333.6" width="36.5" height="230.4" fill="#bdbdb6"/><rect x="381.7" y="340.8" width="36.5" height="223.2" fill="#bdbdb6"/><rect x="440.6" y="255.2" width="36.5" height="308.8" fill="#e4561b"/><rect x="499.6" y="249.1" width="36.5" height="314.9" fill="#e4561b"/><rect x="558.5" y="250.5" width="36.5" height="313.5" fill="#e4561b"/><rect x="617.4" y="221.0" width="36.5" height="343.0" fill="#e4561b"/><rect x="676.3" y="182.6" width="36.5" height="381.4" fill="#e4561b"/><line x1="76" y1="564" x2="724" y2="564" stroke="#bdbdb6" stroke-width="1.5"/></svg>